# xmcd
#
# Track frame offsets:
#	150
#	14760
#	35376
#	45842
#	61522
#	76185
#	94698
#	111059
#	125377
#	138772
#
# Disc length: 2032 seconds
#
# Revision: 1
# Processed by: cddbd v1.4PL0 Copyright (c) Steve Scherf et al.
# Submitted via: audiograbber 1.80
#
DISCID=6c07ee0a
DTITLE=Jack Clayton - One More Mile
DYEAR=1900
DGENRE=
TTITLE0=Sure Takes a Toll On Love
TTITLE1=Montana Morning
TTITLE2=All My Lovin'
TTITLE3=When the Okie From Muskogee Came to Town
TTITLE4=I Can Take It From Here
TTITLE5=Backhaul To Memphis
TTITLE6=Modern Day Cowboy
TTITLE7=Always On a Roll
TTITLE8=A Highway That Never Ends
TTITLE9=White Lies White Lines
EXTD=
EXTT0=
EXTT1=
EXTT2=
EXTT3=
EXTT4=
EXTT5=
EXTT6=
EXTT7=
EXTT8=
EXTT9=
PLAYORDER=
